<svg xmlns="http://www.w3.org/2000/svg" viewBox="0 0 200 60" fill="none">
  <!-- 图标部分: 灯泡轮廓结合向右的箭头 -->
  <path d="M35 10C24 10 15 19 15 30C15 36 18 40 22 44L22 50C22 52 24 54 26 54H44C46 54 48 52 48 50L48 44C52 40 55 36 55 30C55 19 46 10 35 10Z" stroke="#1E2A78" stroke-width="3" fill="none"></path>
  <!-- 灯丝/大脑纹理 -->
  <path d="M28 25C28 25 32 20 35 25C38 30 42 25 42 25" stroke="#FF7A00" stroke-width="3" stroke-linecap="round"></path>
  <!-- 前进箭头 -->
  <path d="M58 20L68 30L58 40" stroke="#FF7A00" stroke-width="4" stroke-linecap="round" stroke-linejoin="round"></path>
  
  <!-- 文字部分 -->
  <text x="80" y="42" font-family="system-ui, sans-serif" font-weight="bold" font-size="32" fill="#1E2A78">
    Clever<tspan fill="#FF7A00">Go</tspan>
  </text>
</svg>
